<?xml version="1.0" encoding="UTF-8"?><svg id="Layer_2" xmlns="http://www.w3.org/2000/svg" viewBox="0 0 125.61 25.35"><g id="Layer_1-2"><path d="M14.84,1.01h.7v9.19h-.7c-.87-2.88-2.01-5.07-3.44-6.56-1.43-1.49-3.09-2.23-4.98-2.23-1.3,0-2.36.36-3.2,1.08s-1.25,1.64-1.25,2.75c0,1.28.51,2.33,1.54,3.16,1.03.83,2.95,1.66,5.78,2.48,3.18.93,5.32,1.92,6.41,2.94,1.09,1.03,1.64,2.42,1.64,4.18,0,1.88-.66,3.45-1.98,4.72-1.32,1.26-2.97,1.9-4.96,1.9-1.15,0-2.19-.18-3.11-.53-.92-.35-1.87-.94-2.84-1.76-.54-.47-.93-.78-1.18-.92-.25-.14-.49-.21-.72-.21-.42,0-.79.27-1.11.81s-.55,1.3-.7,2.28h-.74l.38-10.01h.85c.57,2.87,1.69,5.19,3.35,6.95s3.53,2.65,5.61,2.65c1.47,0,2.68-.39,3.62-1.18.95-.79,1.42-1.79,1.42-3.01,0-1.31-.52-2.38-1.56-3.22-1.04-.84-3.04-1.71-6.02-2.61-2.81-.85-4.79-1.78-5.94-2.81-1.15-1.03-1.72-2.34-1.72-3.95,0-1.77.62-3.28,1.86-4.52,1.24-1.24,2.77-1.86,4.58-1.86.97,0,1.86.16,2.67.48.81.32,1.58.81,2.31,1.48.08.08.2.19.36.35.6.58,1.08.87,1.42.87.43,0,.77-.2,1.01-.61.24-.41.45-1.16.63-2.26Z"/><path d="M14.88,0h5.5v14.19c.43-1.46,1.09-2.58,1.97-3.36.88-.78,1.93-1.17,3.15-1.17,1.42,0,2.49.46,3.21,1.39.71.93,1.07,2.33,1.07,4.21v7.08c0,.68.1,1.12.3,1.32.2.19.65.29,1.34.29h1.13v.73h-8.05v-.73h.97c.69,0,1.14-.1,1.32-.3s.28-.64.28-1.31v-8.86c0-1-.18-1.75-.54-2.26s-.89-.75-1.6-.75c-1.32,0-2.41.76-3.27,2.28-.85,1.52-1.28,3.54-1.28,6.04v3.54c0,.68.1,1.12.29,1.32.19.19.63.29,1.32.29h.97v.73h-8.02v-.73h1.06c.72,0,1.18-.09,1.38-.28s.3-.63.3-1.32V3.37c0-1.5-.18-1.55-.54-1.96-.36-.41-1.11-.64-2.27-.7v-.7Z"/><path d="M37.18,9.35c.68,0,1.34.12,1.97.35.63.23,1.22.58,1.77,1.05.99.87,1.76,1.88,2.32,3.04s.83,2.34.83,3.54-.28,2.4-.84,3.58c-.56,1.18-1.33,2.18-2.31,3-.52.46-1.11.8-1.75,1.04-.64.24-1.31.36-1.99.36-.54,0-1.07-.08-1.59-.24-.52-.16-1.03-.39-1.52-.7-1.11-.72-2.01-1.73-2.73-3.04-.71-1.31-1.07-2.64-1.07-4,0-2.09.69-3.94,2.09-5.56,1.39-1.62,3-2.43,4.82-2.43ZM37.18,10.05c-1.29,0-2.25.6-2.89,1.81s-.96,3.03-.96,5.47.32,4.25.96,5.46c.64,1.21,1.6,1.82,2.89,1.82s2.27-.61,2.91-1.82c.64-1.21.97-3.03.97-5.46s-.32-4.28-.97-5.48c-.64-1.2-1.62-1.8-2.91-1.8Z"/><path d="M41.06,10.02h7.66v.73c-.92.05-1.49.13-1.69.27-.21.13-.31.37-.31.71,0,.14.04.38.12.73.08.35.18.72.31,1.1l2.74,8.09,3.08-8.22c-.24-1.09-.54-1.81-.89-2.15-.35-.34-.93-.51-1.74-.51h-.27v-.73h7.49v.73s-.12,0-.22.02c-1.41.08-2.12.39-2.12.92,0,.19.03.41.08.66s.12.49.2.74l2.84,8.48,2.43-6.94c.17-.51.29-.92.35-1.22.06-.3.09-.57.09-.81,0-.52-.19-.94-.57-1.24-.38-.3-.99-.52-1.84-.64v-.7h6.12v.7c-.77.09-1.41.4-1.91.93-.5.53-.95,1.4-1.38,2.61l-3.97,11.09h-.7l-3.68-10.92-4.05,10.92h-.67l-3.95-11.59c-.4-1.17-.83-1.95-1.31-2.34-.47-.39-1.22-.62-2.23-.7v-.7Z"/><path d="M66.79,18v4.34c0,.68.1,1.12.3,1.32.2.19.64.29,1.32.29h1.35v.73h-8.36v-.73h1.01c.72,0,1.18-.09,1.38-.28s.31-.63.31-1.32v-9.28c0-1.03-.15-1.67-.45-1.92-.3-.26-.99-.38-2.08-.38h-.38v-.73l5.52-.14v4.15c.41-1.32,1.02-2.35,1.84-3.09.81-.74,1.75-1.1,2.8-1.1.89,0,1.61.25,2.17.73.56.49.84,1.13.84,1.91,0,.64-.18,1.15-.53,1.55-.35.39-.81.59-1.37.59-.51,0-.94-.18-1.29-.53-.35-.35-.52-.79-.52-1.32,0-.76.38-1.32,1.13-1.68.21-.09.31-.17.31-.22,0-.05-.12-.11-.36-.19-.24-.08-.48-.12-.74-.12-1.17,0-2.17.71-2.98,2.12-.81,1.41-1.22,3.18-1.22,5.3Z"/><path d="M80.44,9.35c.68,0,1.34.12,1.97.35.63.23,1.22.58,1.77,1.05.99.87,1.76,1.88,2.32,3.04s.83,2.34.83,3.54-.28,2.4-.84,3.58c-.56,1.18-1.33,2.18-2.31,3-.52.46-1.11.8-1.75,1.04-.64.24-1.31.36-1.99.36-.54,0-1.07-.08-1.59-.24-.52-.16-1.03-.39-1.52-.7-1.11-.72-2.01-1.73-2.73-3.04-.71-1.31-1.07-2.64-1.07-4,0-2.09.69-3.94,2.09-5.56,1.39-1.62,3-2.43,4.82-2.43ZM80.44,10.05c-1.29,0-2.25.6-2.89,1.81s-.96,3.03-.96,5.47.32,4.25.96,5.46c.64,1.21,1.6,1.82,2.89,1.82s2.27-.61,2.91-1.82c.64-1.21.97-3.03.97-5.46s-.32-4.28-.97-5.48c-.64-1.2-1.62-1.8-2.91-1.8Z"/><path d="M94.75,9.35c.68,0,1.34.12,1.97.35.63.23,1.22.58,1.77,1.05.99.87,1.76,1.88,2.32,3.04s.83,2.34.83,3.54-.28,2.4-.84,3.58c-.56,1.18-1.33,2.18-2.31,3-.52.46-1.11.8-1.75,1.04-.64.24-1.31.36-1.99.36-.54,0-1.07-.08-1.59-.24-.52-.16-1.03-.39-1.52-.7-1.11-.72-2.01-1.73-2.73-3.04-.71-1.31-1.07-2.64-1.07-4,0-2.09.69-3.94,2.09-5.56,1.39-1.62,3-2.43,4.82-2.43ZM94.75,10.05c-1.29,0-2.25.6-2.89,1.81s-.96,3.03-.96,5.47.32,4.25.96,5.46c.64,1.21,1.6,1.82,2.89,1.82s2.27-.61,2.91-1.82c.64-1.21.97-3.03.97-5.46s-.32-4.28-.97-5.48c-.64-1.2-1.62-1.8-2.91-1.8Z"/><path d="M113.85,14.26c.42-1.42,1.05-2.53,1.88-3.32.83-.79,1.78-1.19,2.84-1.19,1.4,0,2.47.56,3.21,1.67.73,1.11,1.1,2.73,1.1,4.86v6.07c0,.69.1,1.14.29,1.32s.63.28,1.32.28h1.13v.73h-8.02v-.73h.97c.7,0,1.14-.1,1.33-.3s.28-.64.28-1.31v-8.86c0-.98-.16-1.71-.49-2.19-.33-.48-.82-.72-1.5-.72-1.24,0-2.27.76-3.09,2.27-.81,1.52-1.22,3.5-1.22,5.95v3.54c0,.68.1,1.12.3,1.32.2.19.65.29,1.34.29h.87v.73h-7.39v-.73h.56c.68,0,1.12-.1,1.32-.3.19-.2.29-.64.29-1.31v-8.86c0-.98-.17-1.71-.5-2.19-.33-.48-.83-.72-1.5-.72-1.24,0-2.27.76-3.09,2.27s-1.22,3.5-1.22,5.95v3.54c0,.68.1,1.12.3,1.32.2.19.64.29,1.32.29h1.01v.73h-8.02v-.73h1.01c.72,0,1.18-.09,1.38-.28s.31-.63.31-1.32v-9.28c0-1.03-.15-1.67-.45-1.92-.3-.26-.99-.38-2.08-.38h-.38v-.73l5.59-.17v4.38c.39-1.39,1.01-2.48,1.86-3.28.85-.8,1.81-1.2,2.87-1.2,1.13,0,2.05.38,2.77,1.15.72.76,1.21,1.89,1.47,3.37Z"/></g></svg>